<?xml version="1.0" encoding="UTF-8"?>
<svg width="32px" height="32px" viewBox="0 0 32 32" version="1.1" xmlns="http://www.w3.org/2000/svg" xmlns:xlink="http://www.w3.org/1999/xlink">
    <title>MkCacheQueue_32px</title>
    <defs>
        <circle id="path-1" cx="16" cy="16" r="16"></circle>
    </defs>
    <g id="Page-1" stroke="none" stroke-width="1" fill="none" fill-rule="evenodd">
        <g id="Logoset-für-die-MK-Typo3-Extensions" transform="translate(-619, -3711)">
            <g id="MkCacheQueue" transform="translate(104, 3711)">
                <g id="MkCacheQueue_32px" transform="translate(515, 0)">
                    <mask id="mask-2" fill="white">
                        <use xlink:href="#path-1"></use>
                    </mask>
                    <use id="Oval" fill="#1068C9" xlink:href="#path-1"></use>
                    <g id="Group-28" mask="url(#mask-2)">
                        <g transform="translate(-11, 7)">
                            <path d="M29.5,0 C34.4705627,-9.13077564e-16 38.5,4.02943725 38.5,9 L38.5,17.7 C38.5,17.8656854 38.3656854,18 38.2,18 L20.8,18 C20.6343146,18 20.5,17.8656854 20.5,17.7 L20.5,9 C20.5,4.02943725 24.5294373,9.13077564e-16 29.5,0 Z" id="Rectangle" fill-opacity="0.6" fill="#FFFFFF" fill-rule="nonzero" transform="translate(29.5, 9) rotate(90) translate(-29.5, -9)"></path>
                            <path d="M1.05555558,0 L16.9444444,0 C17.5274117,-1.07089347e-16 18,0.472588331 18,1.05555558 L18,16.9444444 C18,17.5274117 17.5274117,18 16.9444444,18 L1.05555558,18 C0.472588331,18 -1.50651707e-16,17.5274117 0,16.9444444 L0,1.05555558 C-7.13928977e-17,0.472588331 0.472588331,-1.14955258e-16 1.05555558,0 Z" id="Rectangle" fill-opacity="0.6" fill="#FFFFFF" fill-rule="nonzero" transform="translate(9, 9) rotate(90) translate(-9, -9)"></path>
                            <g id="Group-29" stroke-width="1" fill="none" fill-rule="evenodd" transform="translate(24.3333, 4.3333)">
                                <path d="M1.93945888,-0.181861462 L9.5151948,7.39387445 C9.63235209,7.51103174 9.63235209,7.70098125 9.5151948,7.81813854 L7.81813854,9.5151948 C7.70098125,9.63235209 7.51103174,9.63235209 7.39387445,9.5151948 L-0.181861462,1.93945888 C-0.299018755,1.82230159 -0.299018755,1.63235209 -0.181861462,1.5151948 L1.5151948,-0.181861462 C1.63235209,-0.299018755 1.82230159,-0.299018755 1.93945888,-0.181861462 Z" id="Line-2" fill="#FFFFFF" fill-rule="nonzero"></path>
                                <path d="M1.93945888,-0.181861462 L9.5151948,7.39387445 C9.63235209,7.51103174 9.63235209,7.70098125 9.5151948,7.81813854 L7.81813854,9.5151948 C7.70098125,9.63235209 7.51103174,9.63235209 7.39387445,9.5151948 L-0.181861462,1.93945888 C-0.299018755,1.82230159 -0.299018755,1.63235209 -0.181861462,1.5151948 L1.5151948,-0.181861462 C1.63235209,-0.299018755 1.82230159,-0.299018755 1.93945888,-0.181861462 Z" id="Line-2-Copy" fill="#FFFFFF" fill-rule="nonzero" transform="translate(4.6667, 4.6667) rotate(-90) translate(-4.6667, -4.6667)"></path>
                            </g>
                        </g>
                    </g>
                    <g id="Group-25" mask="url(#mask-2)">
                        <g transform="translate(15, 13)"></g>
                    </g>
                </g>
            </g>
        </g>
    </g>
</svg>